<svg aria-label="Family" width="18" height="18" fill="none"
    xmlns="http://www.w3.org/2000/svg" style="overflow: visible;">
    <g opacity="1"
        style="transform: none;">
        <path
            d="M15.9502 2.68053C15.95 1.97316 15.669 1.29482 15.1688 0.794634C14.6686 0.294447 13.9902 0.0133573 13.2829 0.0131584C11.9891 3.34419e-05 10.9204 0.924408 10.6552 2.13903H10.5892C10.4662 1.53766 10.1397 0.997068 9.66463 0.60835C9.18957 0.219633 8.59504 0.00655129 7.98121 0.0050099C7.36739 0.00346851 6.77179 0.213562 6.29479 0.599888C5.81778 0.986215 5.48852 1.52516 5.36249 2.12591H5.29649C5.19833 1.65187 4.97337 1.21336 4.64561 0.857102C4.31785 0.500846 3.89957 0.2402 3.43534 0.102946C2.97111 -0.034308 2.47834 -0.0430266 2.00955 0.0777195C1.54076 0.198466 1.11351 0.444151 0.773352 0.78859C0.433193 1.13303 0.192869 1.56331 0.0779936 2.03358C-0.0368817 2.50384 -0.0220025 2.99647 0.121045 3.45894C0.264093 3.92142 0.529948 4.33641 0.890275 4.65969C1.2506 4.98297 1.69189 5.20243 2.16712 5.29466V5.34753C1.55751 5.46642 1.00821 5.79356 0.613293 6.27293C0.218378 6.7523 0.00242551 7.35407 0.00242551 7.97516C0.00242551 8.59625 0.218378 9.19802 0.613293 9.67739C1.00821 10.1568 1.55751 10.4839 2.16712 10.6028V10.6553C1.69141 10.7457 1.24922 10.9637 0.887841 11.286C0.526461 11.6083 0.259487 12.0227 0.115472 12.485C-0.0285422 12.9473 -0.0441795 13.4401 0.0702328 13.9106C0.184645 14.3811 0.424803 14.8117 0.765021 15.1562C1.10524 15.5008 1.53272 15.7464 2.00174 15.8667C2.47076 15.9871 2.96368 15.9777 3.42777 15.8396C3.89187 15.7014 4.30968 15.4397 4.63653 15.0825C4.96338 14.7252 5.18696 14.2858 5.28337 13.8113H5.34937C5.60024 15.0259 6.68287 15.9488 7.96387 15.9488C8.58005 15.9516 9.178 15.7398 9.65503 15.3498C10.1321 14.9597 10.4584 14.4158 10.578 13.8113H10.644C10.8949 15.0259 11.9775 15.9488 13.2585 15.9488C13.9224 15.9472 14.5619 15.6985 15.0525 15.2512C15.5431 14.8039 15.8495 14.1899 15.9122 13.529C15.9748 12.868 15.7891 12.2074 15.3913 11.6759C14.9935 11.1444 14.412 10.78 13.7602 10.6538V10.6013C14.3699 10.4824 14.9192 10.1553 15.3141 9.67589C15.709 9.19652 15.9249 8.59475 15.9249 7.97366C15.9249 7.35257 15.709 6.7508 15.3141 6.27143C14.9192 5.79206 14.3699 5.46492 13.7602 5.34603V5.29316C14.3743 5.1849 14.9305 4.86358 15.3311 4.38572C15.7317 3.90786 15.9509 3.30407 15.9502 2.68053ZM12.2662 11.6457C12.2664 11.7272 12.2504 11.808 12.2193 11.8833C12.1882 11.9587 12.1425 12.0272 12.0848 12.0848C12.0271 12.1425 11.9587 12.1882 11.8833 12.2193C11.8079 12.2505 11.7272 12.2664 11.6456 12.2663H4.31774C4.2362 12.2664 4.15543 12.2505 4.08007 12.2193C4.0047 12.1882 3.93623 12.1425 3.87857 12.0848C3.82091 12.0272 3.7752 11.9587 3.74406 11.8833C3.71292 11.808 3.69697 11.7272 3.69712 11.6457V4.31778C3.69697 4.23624 3.71292 4.15547 3.74406 4.0801C3.7752 4.00474 3.82091 3.93626 3.87857 3.8786C3.93623 3.82094 4.0047 3.77524 4.08007 3.7441C4.15543 3.71296 4.2362 3.69701 4.31774 3.69716H11.6456C11.7272 3.69701 11.8079 3.71296 11.8833 3.7441C11.9587 3.77524 12.0271 3.82094 12.0848 3.8786C12.1425 3.93626 12.1882 4.00474 12.2193 4.0801C12.2504 4.15547 12.2664 4.23624 12.2662 4.31778V11.6457Z"
            fill="white"></path>
    </g>
</svg>