<svg width="25" height="21" fill="none" xmlns="http://www.w3.org/2000/svg">
    <g clip-path="url(#clip0_3763_59327)">
        <path
            d="M10.0532 2.00249C9.62404 2.40246 9.20226 2.79503 8.78049 3.18574C6.82145 5.00414 4.86242 6.8244 2.90153 8.6391C2.45201 9.05574 1.98583 9.45571 1.42162 9.70014C0.750107 9.99086 0.365328 9.80939 0.148891 9.08536C-0.152642 8.07247 0.00829868 7.12808 0.591015 6.25777C1.08679 5.51707 1.71205 4.90045 2.35396 4.30049C3.37695 3.34499 4.40734 2.39876 5.45068 1.46918C5.90761 1.0618 6.40708 0.689606 7.01754 0.565539C8.84524 0.197044 10.0107 1.94878 10.0551 2.00063L10.0532 2.00249Z"
            fill="#4779FF" />
        <path
            d="M1.25879 11.2537C2.37057 10.9333 3.20488 10.2278 4.01698 9.48527C6.60683 7.12246 9.19298 4.75779 11.7939 2.40794C12.3674 1.88946 12.9705 1.39319 13.6087 0.959888C14.4208 0.408071 15.3032 0.328446 16.1726 0.854339C16.4871 1.04322 16.796 1.26357 17.0513 1.52652C17.9374 2.44313 18.8124 3.37455 19.6652 4.32264C20.5717 5.32998 21.4633 6.35214 22.3309 7.39281C22.6287 7.7502 22.8729 8.16683 23.0746 8.58903C23.4501 9.37417 23.3539 10.15 22.897 10.8815C22.4881 11.537 21.9406 12.074 21.3764 12.5832C19.1676 14.5794 16.9588 16.5756 14.7242 18.5439C14.1248 19.0735 13.4644 19.5476 12.7836 19.9661C11.5016 20.7568 10.216 20.6586 9.04684 19.7217C8.36608 19.1772 7.72601 18.568 7.14145 17.9199C5.25826 15.833 3.41021 13.7165 1.54922 11.6092C1.45488 11.5037 1.36978 11.3889 1.25879 11.2518V11.2537Z"
            fill="#4779FF" />
    </g>
    <defs>
        <clipPath id="clip0_3763_59327">
            <rect width="113.613" height="20" fill="white" transform="translate(0 0.5)" />
        </clipPath>
    </defs>
</svg>
    