<svg width="89" height="80" viewBox="0 0 89 80" fill="none" xmlns="http://www.w3.org/2000/svg">
<path d="M58.5867 53.8286L76.4368 71.6419L68.0613 80.0001L50.2112 62.1868C48.6808 60.6596 46.6634 59.8265 44.493 59.8265C42.3227 59.8265 40.3053 60.6596 38.7749 62.1868L20.9248 80.0001L12.5493 71.6419L30.3994 53.8286H58.5728H58.5867Z" fill="#00DE73"/>
<path d="M61.564 48.6914L85.9391 55.203L89 43.7765L64.6248 37.2648C62.5379 36.7095 60.7988 35.3766 59.7136 33.5023C58.6284 31.6418 58.3501 29.462 58.9066 27.3794L65.4317 3.0545L53.9815 0L47.4564 24.3249L61.5501 48.6775L61.564 48.6914Z" fill="#00DE73"/>
<path d="M27.436 48.6914L3.06081 55.203L0 43.7765L24.3752 37.2648C26.4621 36.7095 28.2012 35.3766 29.2864 33.5023C30.3716 31.6418 30.6498 29.462 30.0933 27.3794L23.5682 3.0545L35.0185 0L41.5435 24.3249L27.4499 48.6775L27.436 48.6914Z" fill="#00DE73"/>
</svg>
