<svg width="711" height="101" viewBox="0 0 711 101" fill="none" xmlns="http://www.w3.org/2000/svg">
<path fill-rule="evenodd" clip-rule="evenodd" d="M224.203 0.234375V32.5291H229.251C230.223 26.5391 235.816 19.1651 248.544 19.1651C267.979 19.1651 280.138 34.8893 280.138 54.7967V56.8803C280.138 76.9181 267.979 92.6584 248.544 92.6584C235.816 92.6584 230.365 85.2847 229.251 79.2946H224.203V90.7052H213.016V0.234375H224.203ZM246.292 83.0546C260.015 83.0546 268.666 72.8974 268.666 56.8966V54.8131C268.666 38.8123 260.015 28.9317 246.292 28.9317C232.593 28.9317 224.203 38.8123 224.203 54.8131V56.8966C224.203 72.8974 232.309 83.0546 246.292 83.0546Z" fill="#F7F9F3"/>
<path fill-rule="evenodd" clip-rule="evenodd" d="M166.101 19.1609C178.828 19.1609 184.422 26.5348 185.394 32.5249H190.442V21.1144H201.629V90.701H190.442V79.2904H185.394C184.28 85.2805 178.828 92.6542 166.101 92.6542C146.666 92.6542 134.507 76.93 134.507 56.8761V54.7925C134.507 34.8851 146.666 19.1609 166.101 19.1609ZM168.352 83.0504C182.312 83.0504 190.442 72.8932 190.442 56.8924V54.8089C190.442 38.8081 182.312 28.9275 168.352 28.9275C154.369 28.9275 145.978 38.8081 145.978 54.8089V56.8924C145.978 72.8932 154.629 83.0504 168.352 83.0504Z" fill="#F7F9F3"/>
<path d="M336.99 71.613C336.99 79.2615 328.055 83.4445 318.954 83.4469C309.449 83.4447 299.519 79.6834 296.437 68.1297H285.25C287.929 82.8773 300.372 92.6276 317.437 92.6276C334.478 92.6276 348.178 85.5141 348.178 72.02C348.178 57.4029 336.303 53.5126 324.974 51.5591C322.604 51.1522 315.754 49.8988 313.787 49.4758C303.595 47.2457 300.088 44.7552 300.088 39.3183C300.088 32.075 308.194 28.1846 315.328 28.1846C322.035 28.1846 330.71 29.9914 333.222 42.1018H344.409C341.731 26.508 329.857 19.1343 315.328 19.1343C300.775 19.1343 289.446 29.1611 289.446 40.0185C289.446 50.8756 298.381 57.2726 312.104 59.5026L322.011 61.1793C331.824 62.8395 336.99 65.3462 336.99 71.613Z" fill="#F7F9F3"/>
<path d="M367.598 21.1186C371.106 21.1186 372.078 20.1418 372.078 16.6584V0.234375H383.265V21.1186H417.94V30.8688H383.265V79.8644H417.94V90.7215H382.009C376.557 90.7215 372.078 86.2614 372.078 80.8409V30.8688H350.818V21.1186H367.598Z" fill="#F7F9F3"/>
<path d="M447.009 30.8473V79.7128H425.772V90.7001H490.074V79.7128H458.196V56.4521C458.196 38.3675 473.436 27.2338 490.359 32.3775V19.8438C476.114 17.0603 465.33 27.7873 463.244 35.4376H458.196V21.0971H430.797V30.8473H447.009Z" fill="#F7F9F3"/>
<path fill-rule="evenodd" clip-rule="evenodd" d="M525.897 19.1609C538.601 19.1609 544.194 26.5348 545.19 32.5249H550.214V21.1144H561.401V90.701H550.214V79.2904H545.19C544.076 85.2805 538.601 92.6542 525.897 92.6542C506.438 92.6542 494.303 76.93 494.303 56.8761V54.7925C494.303 34.8851 506.462 19.1609 525.897 19.1609ZM528.125 83.0504C542.108 83.0504 550.214 72.8932 550.214 56.8924V54.8089C550.214 38.8081 542.108 28.9275 528.125 28.9275C514.141 28.9275 505.751 38.8081 505.751 54.8089V56.8924C505.751 72.8932 514.425 83.0504 528.125 83.0504Z" fill="#F7F9F3"/>
<path d="M638.304 44.4783C634.796 29.7309 623.752 19.1504 605.146 19.1504L605.17 19.1343C582.938 19.1343 571.182 34.7281 571.182 54.7659V56.8495C571.182 76.9034 582.938 92.6276 605.17 92.6276C623.349 92.6276 634.394 82.6005 638.162 68.1297H626.548C623.064 77.7334 615.527 83.1539 605.17 83.1539C591.47 83.1539 582.369 72.8503 582.369 56.8495V54.7659C582.369 38.6348 591.47 28.6077 605.17 28.6077C615.788 28.6077 623.491 34.598 626.833 44.4783H638.304Z" fill="#F7F9F3"/>
<path d="M659.818 21.1186C663.326 21.1186 664.298 20.1418 664.298 16.6584V0.234375H675.485V21.1186H710.183V30.8688H675.485V79.8644H710.183V90.7215H674.228C668.801 90.7215 664.298 86.2614 664.298 80.8409V30.8688H643.061V21.1186H659.818Z" fill="#F7F9F3"/>
<path d="M89.8628 91.0387L68.8869 70.1545H35.7525L14.7769 91.0387L24.613 100.838L45.5886 79.9536C47.3899 78.163 49.7599 77.1865 52.3197 77.1865C54.8557 77.1865 57.2497 78.163 59.0273 79.9536L80.0267 100.838L89.8628 91.0387Z" fill="#F7F9F3"/>
<path d="M72.3758 64.1163L101.031 71.7505L104.633 58.3541L75.9782 50.7199C73.5369 50.0688 71.4751 48.5062 70.2189 46.3086C68.939 44.1274 68.6071 41.5719 69.2708 39.1302L76.9263 10.6118L63.4641 7.03076L55.8086 35.5491L72.3758 64.1V64.1163Z" fill="#F7F9F3"/>
<path d="M3.60265 71.7505L32.2575 64.1163L32.2812 64.1L48.8484 35.5491L41.1692 7.03076L27.7067 10.6118L35.3859 39.1302C36.0259 41.5719 35.718 44.1274 34.4381 46.3086C33.1582 48.5062 31.1198 50.0688 28.6548 50.7199L0 58.3541L3.60265 71.7505Z" fill="#F7F9F3"/>
</svg>
